<?xml version="1.0" standalone="no"?>
<!DOCTYPE svg PUBLIC "-//W3C//DTD SVG 20010904//EN"
 "http://www.w3.org/TR/2001/REC-SVG-20010904/DTD/svg10.dtd">
<svg version="1.0" xmlns="http://www.w3.org/2000/svg"
 width="1080.000000pt" height="1080.000000pt" viewBox="0 0 1080.000000 1080.000000"
 preserveAspectRatio="xMidYMid meet">

<g transform="translate(0.000000,1080.000000) scale(0.100000,-0.100000)"
fill="#000000" stroke="none">
<path d="M0 5400 l0 -5400 5400 0 5400 0 0 5400 0 5400 -5400 0 -5400 0 0
-5400z m3063 755 c15 -8 43 -17 63 -21 19 -3 37 -10 40 -15 3 -5 16 -9 29 -9
13 0 39 -6 57 -14 30 -13 65 -23 238 -72 30 -9 70 -22 88 -30 18 -8 38 -14 44
-14 12 0 168 -46 203 -59 19 -8 102 -33 153 -46 12 -4 22 -10 22 -14 0 -13
-33 -38 -60 -46 -14 -4 -52 -20 -85 -35 -33 -15 -72 -30 -87 -33 -27 -7 -139
-55 -191 -82 -16 -8 -35 -15 -43 -15 -8 0 -31 -9 -51 -20 -21 -11 -43 -20 -50
-20 -6 0 -24 -7 -40 -15 -49 -26 -164 -75 -175 -75 -5 0 -22 -6 -36 -14 -118
-60 -249 -109 -257 -97 -2 4 -30 16 -62 25 -32 10 -69 24 -83 31 -14 7 -41 16
-60 20 -19 4 -44 14 -55 21 -11 8 -28 14 -38 14 -11 0 -33 6 -50 14 -37 16
-190 71 -227 81 -14 4 -29 11 -35 15 -5 4 -26 11 -45 15 -19 4 -44 13 -55 20
-11 7 -35 16 -53 20 -18 4 -45 13 -60 21 -15 8 -36 14 -47 14 -27 0 -90 39
-79 49 5 5 41 21 79 36 85 33 147 60 200 86 22 10 46 19 53 19 8 0 26 6 40 14
15 7 52 24 82 36 30 13 83 36 118 52 34 15 67 28 73 28 7 0 45 16 85 35 40 19
77 35 82 35 6 0 23 6 39 14 72 36 102 45 153 45 30 1 68 -6 83 -14z m1991
-375 c109 -13 175 -40 222 -92 66 -74 86 -157 60 -259 -20 -75 -53 -130 -95
-155 l-30 -18 62 -30 c114 -58 161 -157 140 -301 -20 -141 -80 -214 -212 -257
-59 -19 -93 -22 -308 -26 l-243 -4 0 576 0 576 158 0 c86 0 197 -5 246 -10z
m736 -565 l0 -575 -85 0 -85 0 0 568 c0 313 3 572 7 575 3 4 42 7 85 7 l78 0
0 -575z m2022 203 l3 -371 134 156 133 157 100 0 c57 0 98 -4 96 -9 -1 -5 -60
-73 -130 -150 -71 -77 -128 -142 -128 -145 0 -3 57 -92 126 -198 70 -106 129
-198 131 -206 4 -10 -15 -12 -92 -10 l-98 3 -78 125 c-43 69 -84 138 -90 153
l-12 28 -48 -47 -49 -48 0 -108 0 -108 -80 0 -80 0 0 575 0 575 80 0 80 0 2
-372z m-3794 -275 l3 -603 -23 0 c-13 0 -36 -9 -53 -20 -16 -11 -38 -20 -47
-20 -9 0 -29 -6 -45 -14 -59 -30 -159 -74 -183 -81 -28 -8 -149 -59 -193 -81
-16 -8 -33 -14 -39 -14 -6 0 -39 -14 -75 -31 -36 -17 -77 -35 -91 -39 -15 -5
-83 -31 -151 -60 -97 -40 -126 -48 -132 -38 -13 20 -11 1165 1 1189 6 10 18
19 26 19 8 0 32 9 52 19 20 11 57 27 82 36 25 10 72 30 105 45 33 15 71 30 85
34 25 7 139 55 193 82 16 8 33 14 38 14 6 0 38 13 72 29 34 16 73 32 87 35 14
4 39 13 55 21 147 66 193 84 210 82 20 -2 20 -10 23 -604z m-1947 486 c46 -17
101 -34 121 -39 21 -4 44 -12 51 -18 7 -6 51 -23 97 -38 47 -14 99 -32 117
-40 17 -8 38 -14 46 -14 8 0 45 -13 82 -30 37 -16 73 -30 81 -30 8 0 25 -6 37
-14 12 -8 38 -17 57 -21 19 -4 44 -14 55 -21 11 -8 28 -14 37 -14 11 0 23 -11
28 -26 11 -28 10 -1178 -1 -1188 -3 -3 -44 8 -90 25 -46 17 -102 37 -124 43
-22 7 -51 17 -65 23 -14 6 -50 19 -80 30 -107 38 -126 45 -205 75 -44 16 -93
34 -110 38 -16 5 -61 21 -100 35 -38 15 -81 29 -95 32 -51 11 -50 -4 -50 623
0 323 3 590 7 593 10 10 14 9 104 -24z m4461 -292 c74 -36 150 -119 179 -195
31 -81 30 -204 -1 -287 -32 -83 -122 -173 -205 -205 -83 -31 -206 -32 -287 -1
-75 29 -155 103 -193 178 -28 54 -30 65 -30 173 0 106 2 119 28 170 31 61 84
120 135 152 60 37 112 48 217 45 86 -2 108 -6 157 -30z m845 18 c28 -8 62 -24
76 -35 l26 -20 -36 -63 c-43 -77 -39 -73 -61 -54 -67 61 -198 60 -265 -1 -110
-100 -72 -359 60 -403 47 -15 169 -7 210 14 l32 17 27 -45 c37 -65 36 -75 -17
-101 -141 -72 -343 -41 -450 68 -142 146 -141 412 4 545 50 46 75 61 132 79
56 18 201 17 262 -1z m1464 -1 c30 -9 58 -20 63 -24 5 -5 -3 -36 -20 -74 l-28
-64 -40 21 c-56 29 -184 31 -215 3 -50 -46 -18 -94 91 -136 156 -60 222 -107
247 -173 16 -42 13 -107 -8 -152 -56 -123 -245 -165 -456 -100 -83 25 -83 24
-51 100 16 36 31 64 35 62 81 -44 109 -52 199 -52 87 0 95 2 113 24 10 13 19
30 19 38 0 28 -47 60 -142 98 -117 46 -185 95 -215 155 -57 111 2 236 129 275
61 19 212 18 279 -1z"/>
<path d="M4820 5470 l0 -170 98 0 c120 0 159 11 199 52 39 42 57 97 50 156
-10 92 -90 132 -262 132 l-85 0 0 -170z"/>
<path d="M4820 4974 l0 -186 148 4 c126 3 152 6 182 24 92 53 115 210 42 287
-39 41 -107 57 -249 57 l-123 0 0 -186z"/>
<path d="M6295 5225 c-157 -56 -180 -329 -36 -430 36 -26 52 -30 105 -30 125
0 191 81 191 235 0 75 -3 91 -28 133 -50 85 -146 124 -232 92z"/>
</g>
</svg>
